<svg width="16" height="16" viewBox="0 0 16 16" fill="none" xmlns="http://www.w3.org/2000/svg">
<g clip-path="url(#clip0_1_557)">
<path d="M1.33331 6.3332C1.33333 5.59133 1.55838 4.86692 1.97874 4.25564C2.39909 3.64436 2.99499 3.17497 3.68772 2.90946C4.38045 2.64396 5.13742 2.59483 5.85865 2.76856C6.57989 2.94229 7.23146 3.33072 7.72731 3.88253C7.76224 3.91987 7.80446 3.94964 7.85136 3.97C7.89827 3.99035 7.94885 4.00085 7.99998 4.00085C8.05111 4.00085 8.10169 3.99035 8.1486 3.97C8.1955 3.94964 8.23772 3.91987 8.27265 3.88253C8.76694 3.32713 9.41866 2.93544 10.1411 2.7596C10.8635 2.58375 11.6223 2.6321 12.3166 2.89819C13.0108 3.16428 13.6076 3.6355 14.0274 4.24913C14.4472 4.86276 14.6702 5.5897 14.6666 6.3332C14.6666 7.85986 13.6666 8.99986 12.6666 9.99986L9.00531 13.5419C8.88109 13.6845 8.72793 13.7991 8.55601 13.8781C8.38409 13.957 8.19734 13.9984 8.00817 13.9996C7.819 14.0008 7.63174 13.9618 7.45884 13.885C7.28593 13.8083 7.13133 13.6956 7.00531 13.5545L3.33331 9.99986C2.33331 8.99986 1.33331 7.86653 1.33331 6.3332Z" fill="#FB2C36" stroke="#FB2C36" stroke-width="1.33333" stroke-linecap="round" stroke-linejoin="round"/>
</g>
<defs>
<clipPath id="clip0_1_557">
<rect width="16" height="16" fill="white"/>
</clipPath>
</defs>
</svg>
