<svg width="16" height="16" viewBox="0 0 16 16" fill="none" xmlns="http://www.w3.org/2000/svg">
<path d="M10 14.6667V12C10.0928 11.1649 9.85329 10.3267 9.33334 9.66667C11.3333 9.66667 13.3333 8.33333 13.3333 6C13.3867 5.16667 13.1533 4.34667 12.6667 3.66667C12.8533 2.9 12.8533 2.1 12.6667 1.33333C12.6667 1.33333 12 1.33333 10.6667 2.33333C8.90667 2 7.09334 2 5.33334 2.33333C4 1.33333 3.33334 1.33333 3.33334 1.33333C3.13334 2.1 3.13334 2.9 3.33334 3.66667C2.84792 4.34392 2.61232 5.16852 2.66667 6C2.66667 8.33333 4.66667 9.66667 6.66667 9.66667C6.40667 9.99333 6.21334 10.3667 6.1 10.7667C5.98667 11.1667 5.95334 11.5867 6 12V14.6667" stroke="#0A0A0A" stroke-width="1.33333" stroke-linecap="round" stroke-linejoin="round"/>
<path d="M5.99998 12C2.99331 13.3333 2.66665 10.6667 1.33331 10.6667" stroke="#0A0A0A" stroke-width="1.33333" stroke-linecap="round" stroke-linejoin="round"/>
</svg>
